<?xml version="1.0" encoding="utf-8"?>
<!-- Generator: Adobe Illustrator 23.0.2, SVG Export Plug-In . SVG Version: 6.00 Build 0)  -->
<svg version="1.1" xmlns="http://www.w3.org/2000/svg" xmlns:xlink="http://www.w3.org/1999/xlink" x="0px" y="0px"
	 viewBox="0 0 442.25 235.74" style="enable-background:new 0 0 442.25 235.74;" xml:space="preserve">
<style type="text/css">
	.st0{display:none;}
	.st1{display:inline;stroke:#000000;stroke-miterlimit:10;}
	.st2{stroke:#000000;stroke-miterlimit:10;}
	.st3{display:none;fill:none;stroke:#000000;stroke-miterlimit:10;}
	.st4{stroke:#000000;stroke-width:4;stroke-miterlimit:10;}
	.st5{fill:none;stroke:#000000;stroke-width:13;stroke-miterlimit:10;}
</style>
<g id="bg" class="st0">
	<rect x="-325.67" y="-244.25" class="st1" width="640" height="480"/>
</g>
<g id="图层_1">
	<polyline class="st3" points="52.83,135.6 -46.17,99.6 52.83,69.14 52.83,63.6 -64.17,99.6 34.83,135.6 -64.17,171.6 52.83,207.6 
		52.2,201.87 -46.17,171.6 52.83,135.6 	"/>
	<g>
		<polygon class="st4" points="66.28,45.51 66.28,189.51 131.23,189.51 131.23,180.51 75.28,180.51 75.28,45.51 		"/>
		<g>
			<polygon class="st4" points="338.77,45.51 338.77,54.51 357.97,54.51 357.97,180.51 301.58,180.51 301.58,189.51 366.97,189.51 
				366.97,54.51 375.97,54.51 375.97,45.51 			"/>
		</g>
		<polyline class="st5" points="190.71,66.38 190.71,49.29 246.82,49.29 218.76,109.84 246.82,185.74 192.82,185.74 192.82,168.92 
					"/>
	</g>
</g>
</svg>
