<?xml version="1.0" encoding="utf-8"?>
<!-- Generator: Adobe Illustrator 23.0.2, SVG Export Plug-In . SVG Version: 6.00 Build 0)  -->
<svg version="1.1" id="图层_1" xmlns="http://www.w3.org/2000/svg" xmlns:xlink="http://www.w3.org/1999/xlink" x="0px" y="0px"
	 viewBox="0 0 442.25 235.74" style="enable-background:new 0 0 442.25 235.74;" xml:space="preserve">
<style type="text/css">
	.st0{fill:#FFFFFF;}
	.st1{stroke:#000000;stroke-width:0.75;stroke-miterlimit:10;}
</style>
<g>
	<g>
		<polygon class="st0" points="68.07,47.82 68.07,187.93 133.01,187.93 133.01,179.17 77.07,179.17 77.07,47.82 		"/>
		<path d="M135.01,189.87H66.07v-144h13v131.35h55.95V189.87z M70.07,185.98h60.95v-4.86H75.07V49.76h-5V185.98z"/>
	</g>
	<g>
		<polygon class="st0" points="338.56,47.82 338.56,56.57 356.98,56.57 356.98,179.17 302.86,179.17 302.86,187.93 365.62,187.93 
			365.62,56.57 374.26,56.57 374.26,47.82 		"/>
		<path d="M367.54,189.87h-66.6v-12.65h54.12V58.52h-18.42V45.87h39.54v12.65h-8.64V189.87z M304.78,185.98h58.92V54.63h8.64v-4.86
			h-31.86v4.86h18.42v126.49h-54.12V185.98z"/>
	</g>
	<polygon class="st1" points="257.94,189.87 188.11,189.87 188.11,167.4 201.11,167.4 201.11,177.35 239.28,177.35 213.52,110.21 
		238.43,58.4 198.99,58.4 198.99,68.6 185.99,68.6 185.99,45.87 258.78,45.87 227.59,110.75 	"/>
</g>
<text transform="matrix(1 0 0 1 -163.6741 16.7451)" style="display:none; font-family:'FZZJ-LONGYTJW--GB1-0'; font-size:152.2514px;">3 </text>
</svg>
